<mxfile host="app.diagrams.net" modified="2024-01-12T19:55:21.235Z" agent="Mozilla/5.0 (Macintosh; Intel Mac OS X 10_15_7) AppleWebKit/605.1.15 (KHTML, like Gecko) Version/17.0 Safari/605.1.15" etag="ow8x3_7EQ6NVtWppmrj3" version="22.1.18" type="github">
  <diagram name="Page-1" id="LKDCihqu7QzJOyVYmNos">
    <mxGraphModel dx="1026" dy="625" grid="1" gridSize="10" guides="1" tooltips="1" connect="1" arrows="1" fold="1" page="1" pageScale="1" pageWidth="827" pageHeight="1169" math="0" shadow="0">
      <root>
        <mxCell id="0" />
        <mxCell id="1" parent="0" />
        <mxCell id="-dRpDFaT-7xceVLeXtJq-16" style="edgeStyle=orthogonalEdgeStyle;rounded=0;orthogonalLoop=1;jettySize=auto;html=1;endArrow=diamondThin;endFill=1;startSize=6;endSize=26;" edge="1" parent="1" source="-dRpDFaT-7xceVLeXtJq-2" target="-dRpDFaT-7xceVLeXtJq-12">
          <mxGeometry relative="1" as="geometry" />
        </mxCell>
        <mxCell id="-dRpDFaT-7xceVLeXtJq-2" value="&lt;b&gt;&amp;lt;&amp;lt;interface&amp;gt;&amp;gt;&lt;br&gt;LoadBalancingStrategyInterface&lt;br&gt;&lt;/b&gt;" style="swimlane;fontStyle=0;childLayout=stackLayout;horizontal=1;startSize=30;fillColor=none;horizontalStack=0;resizeParent=1;resizeParentMax=0;resizeLast=0;collapsible=1;marginBottom=0;whiteSpace=wrap;html=1;" vertex="1" parent="1">
          <mxGeometry x="1051" y="480" width="190" height="90" as="geometry" />
        </mxCell>
        <mxCell id="-dRpDFaT-7xceVLeXtJq-3" value="+ choose(databases: list[DatabaseWraper]): DatabaseWrapper]" style="text;strokeColor=none;fillColor=none;align=left;verticalAlign=top;spacingLeft=4;spacingRight=4;overflow=hidden;rotatable=0;points=[[0,0.5],[1,0.5]];portConstraint=eastwest;whiteSpace=wrap;html=1;" vertex="1" parent="-dRpDFaT-7xceVLeXtJq-2">
          <mxGeometry y="30" width="190" height="60" as="geometry" />
        </mxCell>
        <mxCell id="-dRpDFaT-7xceVLeXtJq-4" style="edgeStyle=orthogonalEdgeStyle;rounded=0;orthogonalLoop=1;jettySize=auto;html=1;dashed=1;dashPattern=8 8;endArrow=block;endFill=0;endSize=10;" edge="1" parent="1" source="-dRpDFaT-7xceVLeXtJq-5" target="-dRpDFaT-7xceVLeXtJq-2">
          <mxGeometry relative="1" as="geometry" />
        </mxCell>
        <mxCell id="-dRpDFaT-7xceVLeXtJq-5" value="&lt;b&gt;RandomStrategy&lt;br&gt;&lt;/b&gt;" style="swimlane;fontStyle=0;childLayout=stackLayout;horizontal=1;startSize=30;fillColor=none;horizontalStack=0;resizeParent=1;resizeParentMax=0;resizeLast=0;collapsible=1;marginBottom=0;whiteSpace=wrap;html=1;" vertex="1" parent="1">
          <mxGeometry x="1310" y="430" width="190" height="90" as="geometry" />
        </mxCell>
        <mxCell id="-dRpDFaT-7xceVLeXtJq-6" value="+ choose(databases: list[DatabaseWraper]): DatabaseWrapper]" style="text;strokeColor=none;fillColor=none;align=left;verticalAlign=top;spacingLeft=4;spacingRight=4;overflow=hidden;rotatable=0;points=[[0,0.5],[1,0.5]];portConstraint=eastwest;whiteSpace=wrap;html=1;" vertex="1" parent="-dRpDFaT-7xceVLeXtJq-5">
          <mxGeometry y="30" width="190" height="60" as="geometry" />
        </mxCell>
        <mxCell id="-dRpDFaT-7xceVLeXtJq-7" style="edgeStyle=orthogonalEdgeStyle;rounded=0;orthogonalLoop=1;jettySize=auto;html=1;dashed=1;dashPattern=8 8;endArrow=block;endFill=0;endSize=10;" edge="1" parent="1" source="-dRpDFaT-7xceVLeXtJq-8" target="-dRpDFaT-7xceVLeXtJq-2">
          <mxGeometry relative="1" as="geometry" />
        </mxCell>
        <mxCell id="-dRpDFaT-7xceVLeXtJq-8" value="&lt;b style=&quot;border-color: var(--border-color);&quot;&gt;RoundRobinStrategy&lt;/b&gt;" style="swimlane;fontStyle=1;align=center;verticalAlign=top;childLayout=stackLayout;horizontal=1;startSize=26;horizontalStack=0;resizeParent=1;resizeParentMax=0;resizeLast=0;collapsible=1;marginBottom=0;whiteSpace=wrap;html=1;" vertex="1" parent="1">
          <mxGeometry x="1310" y="535" width="190" height="110" as="geometry" />
        </mxCell>
        <mxCell id="-dRpDFaT-7xceVLeXtJq-9" value="- current_index: int" style="text;strokeColor=none;fillColor=none;align=left;verticalAlign=top;spacingLeft=4;spacingRight=4;overflow=hidden;rotatable=0;points=[[0,0.5],[1,0.5]];portConstraint=eastwest;whiteSpace=wrap;html=1;" vertex="1" parent="-dRpDFaT-7xceVLeXtJq-8">
          <mxGeometry y="26" width="190" height="24" as="geometry" />
        </mxCell>
        <mxCell id="-dRpDFaT-7xceVLeXtJq-10" value="" style="line;strokeWidth=1;fillColor=none;align=left;verticalAlign=middle;spacingTop=-1;spacingLeft=3;spacingRight=3;rotatable=0;labelPosition=right;points=[];portConstraint=eastwest;strokeColor=inherit;" vertex="1" parent="-dRpDFaT-7xceVLeXtJq-8">
          <mxGeometry y="50" width="190" height="8" as="geometry" />
        </mxCell>
        <mxCell id="-dRpDFaT-7xceVLeXtJq-11" value="+ choose(databases: list[DatabaseWraper]): DatabaseWrapper]" style="text;strokeColor=none;fillColor=none;align=left;verticalAlign=top;spacingLeft=4;spacingRight=4;overflow=hidden;rotatable=0;points=[[0,0.5],[1,0.5]];portConstraint=eastwest;whiteSpace=wrap;html=1;" vertex="1" parent="-dRpDFaT-7xceVLeXtJq-8">
          <mxGeometry y="58" width="190" height="52" as="geometry" />
        </mxCell>
        <mxCell id="-dRpDFaT-7xceVLeXtJq-12" value="LoadBalancerReadRepository" style="swimlane;fontStyle=1;align=center;verticalAlign=top;childLayout=stackLayout;horizontal=1;startSize=26;horizontalStack=0;resizeParent=1;resizeParentMax=0;resizeLast=0;collapsible=1;marginBottom=0;whiteSpace=wrap;html=1;" vertex="1" parent="1">
          <mxGeometry x="670" y="475" width="320" height="100" as="geometry" />
        </mxCell>
        <mxCell id="-dRpDFaT-7xceVLeXtJq-13" value="- database_wrappers: list[DatabaseWrapper]" style="text;strokeColor=none;fillColor=none;align=left;verticalAlign=top;spacingLeft=4;spacingRight=4;overflow=hidden;rotatable=0;points=[[0,0.5],[1,0.5]];portConstraint=eastwest;whiteSpace=wrap;html=1;" vertex="1" parent="-dRpDFaT-7xceVLeXtJq-12">
          <mxGeometry y="26" width="320" height="24" as="geometry" />
        </mxCell>
        <mxCell id="-dRpDFaT-7xceVLeXtJq-14" value="" style="line;strokeWidth=1;fillColor=none;align=left;verticalAlign=middle;spacingTop=-1;spacingLeft=3;spacingRight=3;rotatable=0;labelPosition=right;points=[];portConstraint=eastwest;strokeColor=inherit;" vertex="1" parent="-dRpDFaT-7xceVLeXtJq-12">
          <mxGeometry y="50" width="320" height="8" as="geometry" />
        </mxCell>
        <mxCell id="-dRpDFaT-7xceVLeXtJq-15" value="+ list_todo_items(): list[TodoItem]&lt;br style=&quot;border-color: var(--border-color);&quot;&gt;+ get_todo_item_by_id(): TodoItem" style="text;strokeColor=none;fillColor=none;align=left;verticalAlign=top;spacingLeft=4;spacingRight=4;overflow=hidden;rotatable=0;points=[[0,0.5],[1,0.5]];portConstraint=eastwest;whiteSpace=wrap;html=1;" vertex="1" parent="-dRpDFaT-7xceVLeXtJq-12">
          <mxGeometry y="58" width="320" height="42" as="geometry" />
        </mxCell>
        <mxCell id="-dRpDFaT-7xceVLeXtJq-17" value="&lt;h1&gt;Strategy pattern&lt;/h1&gt;&lt;div&gt;- It provides us an option to inject specific strategy based on our needs.&lt;/div&gt;&lt;div&gt;- Each strategy can have different dependencies.&lt;/div&gt;&lt;div&gt;- We can change the strategy without changing the strategy invokers&#39; code.&lt;/div&gt;&lt;div&gt;&lt;br&gt;&lt;/div&gt;&lt;div&gt;In our project this pattern is very useful since we can implement more strategies based on the different metrics like e.g request location or server utilisation, without changing the LoadBalancerReadRepository code.&lt;/div&gt;&lt;div&gt;&lt;br&gt;&lt;/div&gt;" style="text;html=1;strokeColor=none;fillColor=none;spacing=5;spacingTop=-20;whiteSpace=wrap;overflow=hidden;rounded=0;" vertex="1" parent="1">
          <mxGeometry x="800" y="280" width="570" height="140" as="geometry" />
        </mxCell>
      </root>
    </mxGraphModel>
  </diagram>
</mxfile>
